<?xml version="1.0" encoding="UTF-8" standalone="no"?>
<!DOCTYPE svg PUBLIC "-//W3C//DTD SVG 1.1//EN" "http://www.w3.org/Graphics/SVG/1.1/DTD/svg11.dtd">
<svg xmlns="http://www.w3.org/2000/svg" version="1.1" viewBox="0 0 649 295">
<rect fill="#34528e" x="-30.11" y="-25.12" transform="translate(50.15,44.12) rotate(0.1)" width="60.22" height="50.24" rx="13.03"/>
<path fill="#34528e" d="
  M 153.06 69.81
  Q 153.39 166.28 153.25 262.75
  Q 153.23 273.07 145.81 276.52
  Q 142.64 277.99 134.96 278.00
  Q 126.11 278.02 117.25 278.06
  Q 114.84 278.08 112.50 277.63
  Q 109.98 277.14 108.07 275.99
  Q 104.14 273.63 102.62 269.48
  Q 101.75 267.10 101.75 261.42
  Q 101.75 147.71 101.83 34.00
  Q 101.84 23.47 109.48 20.32
  Q 112.68 19.00 123.19 19.00
  Q 171.47 19.00 219.75 19.00
  Q 229.88 19.00 233.42 26.31
  Q 234.93 29.44 234.98 36.56
  Q 235.02 43.75 235.01 50.94
  Q 235.01 58.52 233.50 61.84
  Q 230.85 67.67 224.40 68.94
  Q 222.81 69.25 213.57 69.24
  Q 183.57 69.21 153.56 69.31
  A 0.50 0.50 0.0 0 0 153.06 69.81
  Z"
/>
<path fill="#34528e" d="
  M 276.28 24.50
  Q 280.33 18.77 287.50 18.86
  Q 296.82 18.97 306.14 18.99
  Q 315.46 19.02 317.31 19.54
  Q 321.54 20.74 324.12 24.43
  Q 325.52 26.44 327.20 31.86
  Q 336.54 61.98 345.56 92.19
  Q 346.74 96.14 345.72 99.24
  Q 343.86 104.92 339.07 107.03
  Q 336.47 108.18 329.65 108.22
  Q 320.07 108.29 310.50 108.25
  Q 305.78 108.23 303.28 107.64
  Q 299.13 106.67 296.80 103.63
  Q 295.55 102.00 293.97 96.97
  Q 280.96 55.61 274.56 33.94
  Q 273.10 28.98 276.28 24.50
  Z"
/>
<path fill="#34528e" d="
  M 531.75 185.42
  Q 554.90 109.23 578.50 32.13
  Q 580.51 25.56 582.47 23.24
  Q 586.04 19.00 592.00 19.00
  Q 602.87 19.00 613.75 19.00
  Q 617.49 19.00 620.27 19.18
  Q 623.98 19.43 626.36 21.02
  Q 632.37 25.03 631.75 33.25
  Q 631.62 34.98 630.19 39.56
  Q 594.59 153.65 558.57 267.61
  Q 557.16 272.07 555.49 273.92
  Q 553.82 275.78 551.53 276.88
  Q 549.75 277.74 546.82 277.83
  Q 532.26 278.26 517.70 277.87
  Q 513.06 277.74 510.59 276.31
  Q 507.97 274.79 506.23 272.25
  Q 505.12 270.63 503.91 266.90
  Q 478.40 188.34 453.00 109.74
  Q 452.75 108.98 452.51 109.74
  Q 428.20 185.60 403.82 261.62
  Q 401.07 270.18 400.44 271.27
  Q 398.52 274.57 395.09 276.41
  Q 392.60 277.74 388.14 277.86
  Q 373.65 278.26 359.16 277.84
  Q 355.84 277.75 353.62 276.49
  Q 346.45 272.44 347.21 264.84
  Q 347.39 263.07 350.67 253.27
  Q 386.93 144.81 423.20 36.37
  Q 426.68 25.96 427.80 24.36
  Q 430.77 20.09 436.27 19.19
  Q 437.41 19.00 445.75 19.00
  Q 456.37 19.00 467.00 19.02
  Q 468.86 19.02 470.66 19.38
  Q 472.48 19.73 474.02 20.73
  Q 477.71 23.14 479.59 26.98
  Q 479.92 27.65 482.19 34.69
  Q 506.31 109.45 530.71 185.42
  Q 531.24 187.08 531.75 185.42
  Z"
/>
</svg>
