<svg xmlns="http://www.w3.org/2000/svg" version="1.1" viewBox="0 0 225 225">

 <g>
  <title>Layer 1</title>
  <path id="svg_49" d="m224.89,112.5a112.39,112.39 0 0 1 -112.39,112.39a112.39,112.39 0 0 1 -112.39,-112.39a112.39,112.39 0 0 1 112.39,-112.39a112.39,112.39 0 0 1 112.39,112.39zm-3.15,0a109.24,109.24 0 0 0 -109.24,-109.24a109.24,109.24 0 0 0 -109.24,109.24a109.24,109.24 0 0 0 109.24,109.24a109.24,109.24 0 0 0 109.24,-109.24z" fill="#110d0e"/>
  <path id="svg_50" d="m221.74,112.5a109.24,109.24 0 0 1 -109.24,109.24a109.24,109.24 0 0 1 -109.24,-109.24a109.24,109.24 0 0 1 109.24,-109.24a109.24,109.24 0 0 1 109.24,109.24zm-98.81,-101.43c-0.11,4.01 -1.06,7.65 -1.38,11.61c-0.18,2.31 -2.71,0.67 -2.9,1.8a0.72,0.46 8.9 0 0 0.65,0.57l11.43,1.72q2.88,0.43 4.15,-2.54q1.38,-3.22 -2.56,-5.2q-1.8,-0.9 0.21,-0.96c3.95,-0.12 4.16,-5 0.91,-6.51q-4,-1.85 -11.88,-2.22q-0.58,-0.03 -0.29,0.43q0.38,0.6 1.17,0.75a0.59,0.54 6.2 0 1 0.49,0.55zm-32.17,7.13q-2.43,-1.42 -3.99,-3.77a0.63,0.63 -39.3 0 1 0.08,-0.78c2.98,-3.05 -5.58,0.1 -6.42,0.59a0.3,0.29 44.8 0 0 0.01,0.51c4.29,2.57 8.49,6.37 8.85,11.54a0.8,0.8 74.3 0 1 -0.42,0.75c-5.41,2.85 5.93,0.01 6.07,-0.01a1.5,0.92 3.5 0 0 0.85,-0.45q0.69,-0.87 -1.54,-0.81a1.23,1.22 81.7 0 1 -1.22,-0.91q-1.85,-6.92 2.63,-13.7q0.93,-1.42 -0.68,-0.9q-1.93,0.61 -3.94,0.97c-1.16,0.21 -2.15,1.37 0.35,1.26a0.92,0.9 5.2 0 1 0.94,1.1l-1.01,4.36a0.38,0.38 -68.9 0 1 -0.56,0.25zm60.05,7.43c6.76,1.22 -4.31,9.84 4.93,10.58c1.54,0.12 3.09,-0.49 3.06,-2.21q-0.01,-0.52 -0.42,-0.16c-4.07,3.65 -0.99,-3.39 -2.71,-5.79q-0.94,-1.33 0.6,-0.79c4.54,1.58 6.76,-4.23 2.92,-6.95q-1.73,-1.22 -10.52,-4.88q-1.01,-0.42 -0.57,0.41a1.42,0.54 20.7 0 0 0.59,0.52c0.8,0.48 1,0.97 0.59,1.88q-2.37,5.19 -4.76,10.37a1.02,0.84 -78.9 0 1 -0.69,0.57q-0.72,0.11 -1.4,-0.19a0.83,0.49 28.5 0 0 -0.83,0.03c-0.75,0.9 8.21,4.85 7.89,3.6a1.11,0.67 12.4 0 0 -0.61,-0.58c-2.03,-0.84 0.54,-4.74 1.2,-6.03a0.72,0.69 -71.2 0 1 0.73,-0.38zm-90.03,2.11c1.93,0.71 14.68,6.14 15.61,5.23a0.76,0.62 55.1 0 0 0.06,-0.84q-3.2,-5.73 -6.19,-11.56c-0.33,-0.64 -0.18,-1.14 0.36,-1.53a1.11,0.54 -29.2 0 0 0.51,-0.73q-0.06,-1.16 -2.91,0.82q-0.84,0.59 -1.82,0.91q-1.15,0.37 -0.98,0.83a0.68,0.45 -19.7 0 0 0.79,0.19c2.84,-1 4.59,3.98 5.6,5.84q0.73,1.35 -0.74,0.79l-10.58,-4.04a1.38,1.16 -42.5 0 0 -0.95,0.04c-0.2,0.09 -7.2,4.15 -2.82,2.74a1.33,1.3 -23.5 0 1 1.55,0.59l5.26,9.47a1.5,1.45 -39.7 0 1 -0.18,1.67q-0.75,0.88 -0.78,1.4a0.47,0.33 -13.9 0 0 0.64,0.25c0.28,-0.11 8.86,-4.23 2.98,-3.32a1.12,1.04 -18 0 1 -1.11,-0.51l-4.54,-7.96q-0.27,-0.47 0.24,-0.28zm134.01,84.76a82.29,82.29 0 0 0 -82.29,-82.29a82.29,82.29 0 0 0 -82.29,82.29a82.29,82.29 0 0 0 82.29,82.29a82.29,82.29 0 0 0 82.29,-82.29zm-12.44,-73a8.48,8.48 0 0 0 -8.48,-8.48a8.48,8.48 0 0 0 -8.48,8.48a8.48,8.48 0 0 0 8.48,8.48a8.48,8.48 0 0 0 8.48,-8.48zm-127.05,3.81a8.49,8.49 0 0 0 -8.49,-8.49a8.49,8.49 0 0 0 -8.49,8.49a8.49,8.49 0 0 0 8.49,8.49a8.49,8.49 0 0 0 8.49,-8.49zm144.12,14.87a8.48,8.48 0 0 0 -8.48,-8.48a8.48,8.48 0 0 0 -8.48,8.48a8.48,8.48 0 0 0 8.48,8.48a8.48,8.48 0 0 0 8.48,-8.48zm-175.86,3.88c0.3,-2.13 1.42,-1.95 2.86,-1.03q4.47,2.84 9.16,5.83a0.73,0.71 -67.6 0 1 0.31,0.78c-1.43,6.06 4.22,-4.02 4.34,-4.22a0.93,0.61 -51 0 0 0.09,-0.89q-0.37,-0.51 -1.25,0.64a1.14,1.14 -55.4 0 1 -1.51,0.28l-9.82,-6.27a1.19,1.19 -51.9 0 1 -0.22,-1.83c2.37,-2.48 5,0.45 6.09,-0.42a0.42,0.4 39.6 0 0 -0.08,-0.67l-4.51,-2.51a0.58,0.51 -59.7 0 0 -0.72,0.24l-7.02,11.36a0.66,0.63 -55.8 0 0 0.15,0.87l3.89,2.77a0.67,0.52 36.6 0 0 0.83,-0.02q0.29,-0.35 -0.34,-0.78q-2.57,-1.78 -2.25,-4.13zm172.15,22.19l0.08,0.5c0.07,0.55 2.72,11.09 3.24,7.36c0.32,-2.3 4.62,-6.79 6.21,-8.67a0.79,0.77 -61.5 0 1 0.81,-0.25q3.28,0.96 5.97,3.71q1.47,1.51 0.78,-0.47l-5.18,-14.9q-0.19,-0.54 -0.52,-0.09q-0.46,0.66 -0.41,1.56a0.71,0.64 79.9 0 1 -0.42,0.68l-11.3,3.92a0.75,0.67 59.6 0 1 -0.77,-0.25c-0.23,-0.3 -2.53,-3.08 -1.68,-0.04q1.04,3.75 3.19,6.94zm-180.28,-6.36q-2.4,2.98 -2.43,5.11c-0.07,4.84 5.34,7.63 8.57,3.57q0.67,-0.84 3.12,-4.38c3.44,-4.98 8.2,4.67 -1.94,6.74q-1.78,0.36 -0.14,1.13q1.66,0.78 4.54,1.29q1.72,0.3 0.58,-1.03c-1.09,-1.27 0.42,-2.01 1.02,-2.79c2.16,-2.85 2.47,-6.7 -0.79,-8.96c-5.39,-3.74 -7.8,3.65 -10.65,6.52a1.05,0.96 -61.2 0 1 -0.87,0.3c-5.34,-0.78 -0.4,-7.05 3.44,-7.37c4.57,-0.38 -2.85,-2.21 -2.89,-2.23q-2.61,-0.8 -1.5,1.27a0.78,0.74 50.8 0 1 -0.06,0.83zm4.6,34.45a3.41,3.41 0 0 0 -3.41,-3.41a3.41,3.41 0 0 0 -3.41,3.41a3.41,3.41 0 0 0 3.41,3.41a3.41,3.41 0 0 0 3.41,-3.41zm191.7,-0.01a3.42,3.42 0 0 0 -3.42,-3.42a3.42,3.42 0 0 0 -3.42,3.42a3.42,3.42 0 0 0 3.42,3.42a3.42,3.42 0 0 0 3.42,-3.42zm-185.67,23.17c-5.81,3.25 -17.02,2.99 -10.49,13.73c4.33,7.1 12.27,-3.09 16.09,0.42a0.72,0.35 41.6 0 0 0.79,0.22q0.3,-0.37 0.11,-1.69q-0.13,-0.93 -0.6,-1.75q-2.08,-3.67 -1.95,-0.5a1.33,1.33 77.9 0 1 -0.83,1.29c-3.61,1.46 -11.71,6.22 -12.98,-0.76q-0.49,-2.65 1.75,-3.45l9.35,-3.38a0.74,0.7 72.1 0 1 0.92,0.5q0.37,1.21 1.03,1.04a0.55,0.48 72.1 0 0 0.3,-0.71l-2.65,-6.95a0.35,0.34 55.5 0 0 -0.59,-0.12q-0.51,0.59 -0.07,1.44a0.51,0.48 61.6 0 1 -0.18,0.67zm169.54,8.2c0.27,-4.75 -2.92,4.7 -3.17,5.75q-0.12,0.48 0.33,0.26c4.32,-2.13 9.96,-3.78 14.64,-1.34a0.98,0.98 16.9 0 1 0.52,0.97c-0.56,6.08 3.31,-5.25 3.34,-5.34q0.65,-2.16 -2.31,0.56a0.45,0.45 -57.2 0 1 -0.46,0.1q-7.05,-2.32 -10.2,-10.14q-0.31,-0.78 -0.63,0c-0.2,0.45 -3.93,8.25 -0.23,4.7a1.07,0.91 -42.2 0 1 1.44,-0.05l2.87,3.41a0.35,0.35 -25.3 0 1 -0.21,0.57l-5.47,1.02a0.44,0.39 87.1 0 1 -0.46,-0.47zm-158.21,30l2.33,-10.6a3.12,2.54 -59.7 0 0 -0.35,-2.25q-3.64,-5.49 -3.18,-1.34a0.96,0.8 71.3 0 1 -0.32,0.83l-8.27,6.27a1.72,1.43 32.8 0 1 -1.48,0.18q-1.29,-0.43 -1.8,-0.32c-1.12,0.24 4.81,8.84 3.55,3.47a1.86,1.73 65.8 0 1 0.63,-1.85l6.48,-4.9q0.89,-0.67 0.63,0.43l-3.36,14.39q-0.58,2.48 1.48,0.97q4.39,-3.23 9.02,-6.73q1.81,-1.36 3.33,-0.52a1.19,0.45 33.9 0 0 0.9,0.21q0.44,-0.18 -0.04,-0.88q-1.94,-2.78 -3.17,-4.14a0.44,0.36 38.6 0 0 -0.67,0.01q-0.24,0.51 0.15,1.48a1.5,1.37 61.3 0 1 -0.41,1.69l-5.1,3.82q-0.48,0.36 -0.35,-0.22zm149.08,-10.65a1.02,1.01 -46.7 0 1 -0.04,-1.61c2.47,-1.99 5.77,0.13 6.17,-0.25a0.54,0.44 36.4 0 0 -0.19,-0.75l-4.2,-2.52a0.65,0.52 -56.1 0 0 -0.76,0.24l-7.67,10.6a0.75,0.75 -49.2 0 0 0.07,0.96q1.58,1.62 3.43,2.68q2.2,1.25 -0.37,-2.16a3.3,3.22 -63.5 0 1 -0.65,-2.02q0.08,-3.34 2.49,-1.5c2.94,2.24 6.05,4.27 9.03,6.44a1,1 -64 0 1 0.37,1.08c-1.72,6.2 7.94,-8.06 3.22,-4.5a1.33,1.31 -45.4 0 1 -1.56,0.02l-9.34,-6.71zm-7.47,25.01l-7.08,-8.46a0.8,0.79 45.3 0 1 0,-1.03q1.29,-1.51 0.72,-1.74c-0.95,-0.4 -5.57,4.18 -5.83,4.48q-1.92,2.29 0.74,0.81a1.2,1.19 -34.2 0 1 1.5,0.28l7.19,8.73a1.04,1.03 -50.2 0 1 0.1,1.18c-3.1,5.39 5.84,-3.19 6.07,-3.44q0.31,-0.33 -0.17,-0.34l-2.42,-0.04a1.21,0.99 67 0 1 -0.82,-0.43zm-120.78,-4.38a0.94,0.91 -52.6 0 1 1.26,-0.19c2.42,1.75 1.84,0.1 0.89,-0.7c-0.55,-0.45 -6.2,-5.38 -6.13,-4.1q0,0.13 0.39,0.88l0.5,0.95a0.96,0.65 -44.1 0 1 -0.18,0.88l-7.12,8.95a1.19,1.16 32 0 1 -1.45,0.31c-1.18,-0.59 -2.6,-0.64 -1.08,0.74c1.11,1.01 9.33,7.44 5.6,3a1.15,1.12 -46 0 1 0,-1.44l7.32,-9.28zm102.16,19.39c-2.67,3.04 -6.51,1.78 -9.13,-0.57q-1.99,-1.79 -0.81,0.56l2.35,4.69q0.86,1.72 1.21,-0.24c0.33,-1.87 1.78,-1.16 2.99,-1.35c4.15,-0.64 7.49,-4.29 4.82,-8.52c-2.45,-3.89 -7.22,-1.58 -10.81,-1.19a1.09,1 -23.3 0 1 -0.86,-0.3c-2.24,-2.29 -0.06,-4.26 2.29,-4.51q3.02,-0.33 5.51,1.72a0.92,0.54 45.4 0 0 0.86,0.23c0.45,-0.25 -2.01,-4.3 -2.46,-5q-0.48,-0.76 -0.82,0.07c-1.07,2.61 -6.76,0.69 -7.98,5.86q-1.46,6.23 5.97,5.73q1.73,-0.12 3.38,-0.63q3.95,-1.21 3.83,2.58a1.44,1.39 67.4 0 1 -0.34,0.87zm-87.06,-0.39l0.2,-9.28a0.56,0.55 2.5 0 1 0.6,-0.54c5.71,0.46 -3.32,-3.29 -4.51,-3.79c-1.77,-0.74 0.15,2.06 0.14,2.68q-0.14,7 -0.25,14.01q-0.06,3.55 2.54,1.08l9.54,-9.08a2.76,2.54 19.7 0 1 1.73,-0.73q2.69,-0.16 0.94,-1.28q-0.63,-0.41 -4.19,-1.81q-1.87,-0.74 -0.2,2.11a0.82,0.73 53.7 0 1 -0.09,0.96l-6.06,5.87q-0.4,0.39 -0.39,-0.2zm24.27,10.5l0.63,-5.37a0.51,0.5 8.1 0 1 0.59,-0.44q2.2,0.38 2.47,2.57a1.28,0.81 -84.1 0 0 0.41,0.82c1.61,1.11 2.05,-10.18 0.25,-6.07q-0.69,1.59 -2.63,1.56a0.84,0.78 4.6 0 1 -0.82,-0.9l0.65,-4.28a0.87,0.82 5.8 0 1 0.91,-0.7q5.39,0.35 5.91,4.52c0.06,0.45 0.43,1.32 0.94,0.98a1.2,0.66 83.8 0 0 0.36,-0.87l0.24,-4.29a0.57,0.55 -83.8 0 0 -0.46,-0.59c-1.5,-0.23 -14.22,-2.32 -13.76,-1.24a0.94,0.58 1.6 0 0 0.66,0.43c1.92,0.36 1.11,1.59 1.01,2.79q-0.43,5.38 -1.36,10.54a0.62,0.61 -88.1 0 1 -0.54,0.51q-1.8,0.22 -1.82,0.69a0.86,0.41 6.7 0 0 0.76,0.48l13.46,1.8a0.57,0.53 8.8 0 0 0.63,-0.42l0.89,-5.05a0.74,0.62 -69.5 0 0 -0.24,-0.69q-0.33,-0.24 -0.54,0.23q-2.56,5.5 -8.15,3.66a0.65,0.62 12.3 0 1 -0.45,-0.67zm29.58,0.03l-0.9,-5.21a0.62,0.57 -12.7 0 1 0.45,-0.65q3.67,-1.01 4.09,3.09c0.69,6.66 9.03,3.41 7.35,-0.37q-0.23,-0.52 -0.47,0q-1.13,2.39 -1.94,1.58c-1.82,-1.82 -0.3,-3.88 -4.01,-5.02q-0.45,-0.14 -0.04,-0.34c3.66,-1.83 4.78,-7.17 -0.01,-7.73q-4.69,-0.55 -12.65,1.86q-0.53,0.16 -0.1,0.45q0.66,0.44 1.5,0.46a0.66,0.6 -4.4 0 1 0.61,0.47q1.28,5.28 1.89,10.69c0.13,1.07 0.95,2.21 -0.95,2.47a1.35,0.85 5.7 0 0 -0.82,0.41c-1.01,1.33 6.36,-0.26 6.84,-0.32c1.15,-0.12 3.47,-1.49 -0.19,-1.38a0.66,0.55 -4.6 0 1 -0.65,-0.46z" fill="#ffffff"/>
  <path id="svg_51" d="m122.44,10.52q-0.79,-0.15 -1.17,-0.75q-0.29,-0.46 0.29,-0.43q7.88,0.37 11.88,2.22c3.25,1.51 3.04,6.39 -0.91,6.51q-2.01,0.06 -0.21,0.96q3.94,1.98 2.56,5.2q-1.27,2.97 -4.15,2.54l-11.43,-1.72a0.72,0.46 8.9 0 1 -0.65,-0.57c0.19,-1.13 2.72,0.51 2.9,-1.8c0.32,-3.96 1.27,-7.6 1.38,-11.61a0.59,0.54 6.2 0 0 -0.49,-0.55zm8.81,2.07q-1.37,-1.15 -3.19,-1.15a0.72,0.6 4.8 0 0 -0.69,0.48l-0.93,4.64a0.69,0.56 16.3 0 0 0.47,0.68q4.67,1.65 4.85,-3.49a1.48,1.48 21.3 0 0 -0.51,-1.16zm-1.57,6.79l-2.86,-0.77a0.65,0.56 -71.7 0 0 -0.7,0.42q-0.92,2.44 -0.73,5.04a0.91,0.9 11.4 0 0 0.49,0.73q3.88,1.92 5.2,-2.32q0.79,-2.51 -1.4,-3.1z" fill="#110d0e"/>
  <path id="svg_52" d="m91.32,17.95l1.01,-4.36a0.92,0.9 5.2 0 0 -0.94,-1.1c-2.5,0.11 -1.51,-1.05 -0.35,-1.26q2.01,-0.36 3.94,-0.97q1.61,-0.52 0.68,0.9q-4.48,6.78 -2.63,13.7a1.23,1.22 81.7 0 0 1.22,0.91q2.23,-0.06 1.54,0.81a1.5,0.92 3.5 0 1 -0.85,0.45c-0.14,0.02 -11.48,2.86 -6.07,0.01a0.8,0.8 74.3 0 0 0.42,-0.75c-0.36,-5.17 -4.56,-8.97 -8.85,-11.54a0.3,0.29 44.8 0 1 -0.01,-0.51c0.84,-0.49 9.4,-3.64 6.42,-0.59a0.63,0.63 -39.3 0 0 -0.08,0.78q1.56,2.35 3.99,3.77a0.38,0.38 -68.9 0 0 0.56,-0.25z" fill="#0a090a"/>
  <path id="svg_53" d="m131.25,12.59a1.48,1.48 21.3 0 1 0.51,1.16q-0.18,5.14 -4.85,3.49a0.69,0.56 16.3 0 1 -0.47,-0.68l0.93,-4.64a0.72,0.6 4.8 0 1 0.69,-0.48q1.82,0 3.19,1.15z" fill="#ffffff"/>
  <path id="svg_54" d="m150.08,26.01c-0.66,1.29 -3.23,5.19 -1.2,6.03a1.11,0.67 12.4 0 1 0.61,0.58c0.32,1.25 -8.64,-2.7 -7.89,-3.6a0.83,0.49 28.5 0 1 0.83,-0.03q0.68,0.3 1.4,0.19a1.02,0.84 -78.9 0 0 0.69,-0.57q2.39,-5.18 4.76,-10.37c0.41,-0.91 0.21,-1.4 -0.59,-1.88a1.42,0.54 20.7 0 1 -0.59,-0.52q-0.44,-0.83 0.57,-0.41q8.79,3.66 10.52,4.88c3.84,2.72 1.62,8.53 -2.92,6.95q-1.54,-0.54 -0.6,0.79c1.72,2.4 -1.36,9.44 2.71,5.79q0.41,-0.36 0.42,0.16c0.03,1.72 -1.52,2.33 -3.06,2.21c-9.24,-0.74 1.83,-9.36 -4.93,-10.58a0.72,0.69 -71.2 0 0 -0.73,0.38zm1.53,-1.48q4.74,2.3 6.01,-1.8a1.35,1.33 -49.2 0 0 -0.06,-0.95q-0.98,-2.07 -3.6,-2.59a0.78,0.74 18.2 0 0 -0.83,0.39l-1.92,3.91a0.81,0.75 26.2 0 0 0.4,1.04zm2.34,6.91q0.09,5.98 0.75,-0.2a0.56,0.39 -88.8 0 0 -0.42,-0.63q-0.35,0.06 -0.33,0.83z" fill="#0a090a"/>
  <path id="svg_55" d="m60.54,28.02l4.54,7.96a1.12,1.04 -18 0 0 1.11,0.51c5.88,-0.91 -2.7,3.21 -2.98,3.32a0.47,0.33 -13.9 0 1 -0.64,-0.25q0.03,-0.52 0.78,-1.4a1.5,1.45 -39.7 0 0 0.18,-1.67l-5.26,-9.47a1.33,1.3 -23.5 0 0 -1.55,-0.59c-4.38,1.41 2.62,-2.65 2.82,-2.74a1.38,1.16 -42.5 0 1 0.95,-0.04l10.58,4.04q1.47,0.56 0.74,-0.79c-1.01,-1.86 -2.76,-6.84 -5.6,-5.84a0.68,0.45 -19.7 0 1 -0.79,-0.19q-0.17,-0.46 0.98,-0.83q0.98,-0.32 1.82,-0.91q2.85,-1.98 2.91,-0.82a1.11,0.54 -29.2 0 1 -0.51,0.73c-0.54,0.39 -0.69,0.89 -0.36,1.53q2.99,5.83 6.19,11.56a0.76,0.62 55.1 0 1 -0.06,0.84c-0.93,0.91 -13.68,-4.52 -15.61,-5.23q-0.51,-0.19 -0.24,0.28z" fill="#050405"/>
  <path id="svg_56" d="m129.68,19.38q2.19,0.59 1.4,3.1q-1.32,4.24 -5.2,2.32a0.91,0.9 11.4 0 1 -0.49,-0.73q-0.19,-2.6 0.73,-5.04a0.65,0.56 -71.7 0 1 0.7,-0.42l2.86,0.77z" fill="#ffffff"/>
  <path id="svg_57" d="m151.61,24.53a0.81,0.75 26.2 0 1 -0.4,-1.04l1.92,-3.91a0.78,0.74 18.2 0 1 0.83,-0.39q2.62,0.52 3.6,2.59a1.35,1.33 -49.2 0 1 0.06,0.95q-1.27,4.1 -6.01,1.8z" fill="#ffffff"/>
  <path id="svg_58" d="m194.79,112.5a82.29,82.29 0 0 1 -82.29,82.29a82.29,82.29 0 0 1 -82.29,-82.29a82.29,82.29 0 0 1 82.29,-82.29a82.29,82.29 0 0 1 82.29,82.29zm-3.18,0a79.13,79.13 0 0 0 -79.13,-79.13a79.13,79.13 0 0 0 -79.13,79.13a79.13,79.13 0 0 0 79.13,79.13a79.13,79.13 0 0 0 79.13,-79.13z" fill="#110d0e"/>
  <path id="svg_59" d="m153.95,31.44q-0.02,-0.77 0.33,-0.83a0.56,0.39 -88.8 0 1 0.42,0.63q-0.66,6.18 -0.75,0.2z" fill="#333a34"/>
  <path id="svg_60" d="m182.35,39.5a8.48,8.48 0 0 1 -8.48,8.48a8.48,8.48 0 0 1 -8.48,-8.48a8.48,8.48 0 0 1 8.48,-8.48a8.48,8.48 0 0 1 8.48,8.48zm-13.2241,5.6239a7.35,4.13 130.2 0 0 7.8986,-2.9482a7.35,4.13 130.2 0 0 1.5896,-8.2796a7.35,4.13 130.2 0 0 -7.8986,2.9482a7.35,4.13 130.2 0 0 -1.5896,8.2796z" fill="#050405"/>
  <path id="svg_61" d="m191.61,112.5a79.13,79.13 0 0 1 -79.13,79.13a79.13,79.13 0 0 1 -79.13,-79.13a79.13,79.13 0 0 1 79.13,-79.13a79.13,79.13 0 0 1 79.13,79.13zm-74.66,-58.8a0.51,0.44 -89.8 0 0 -0.48,0.55l7.56,118.7a0.36,0.34 74.9 0 0 0.5,0.3l6.84,-3.36a0.8,0.73 74.3 0 0 0.39,-0.78l-12.45,-114.6a0.75,0.56 87.2 0 0 -0.54,-0.66l-1.82,-0.15zm-55.09,72.62c5.4,24.84 25.21,44.78 49.96,50.88a0.4,0.39 6.9 0 0 0.49,-0.38l0.19,-122.82a0.25,0.25 0 0 0 -0.25,-0.25q-26.99,-0.12 -51.29,12.24a0.86,0.84 -14 0 0 -0.46,0.75q0,20.91 0,41.81q0,11.54 1.36,17.77zm63.65,-72.16c-1.61,-0.77 -2.51,-0.44 -2.19,1.44q9.12,52.68 18.05,106.12q0.15,0.89 0.79,0.25l5.27,-5.28a0.86,0.85 61.5 0 0 0.23,-0.79l-21.8,-101.29a0.64,0.63 7.8 0 0 -0.35,-0.45zm6.65,1.31q-1.22,-0.77 -1.95,-0.66a0.56,0.44 77.8 0 0 -0.33,0.68l24.98,90.52q0.16,0.57 0.42,0.07l3.54,-6.87a1.4,0.95 57.6 0 0 0.03,-0.94l-26.11,-82.05a1.44,1.41 -83.3 0 0 -0.58,-0.75zm31.02,70.78c1.57,-5.3 1.67,-8.72 -0.57,-14.07q-11.07,-26.44 -22.2,-52.85c-0.65,-1.52 -0.78,-2.57 -2.43,-3.34q-1.95,-0.91 -1.19,1.11l26.13,69.16q0.14,0.39 0.26,-0.01zm0.63,-60.32q-9.3,-5.23 -19.58,-8.19q-0.73,-0.2 -0.4,0.48l20.36,42.86q0.5,1.03 0.49,-0.12l-0.17,-33.81a1.45,1.4 -75.8 0 0 -0.7,-1.22z" fill="#ffffff"/>
  <ellipse id="svg_62" transform="rotate(130.2 173.87 39.51)" ry="4.13" rx="7.35" cy="39.51" cx="173.87" fill="#ffffff"/>
  <path id="svg_63" d="m55.3,43.31a8.49,8.49 0 0 1 -8.49,8.49a8.49,8.49 0 0 1 -8.49,-8.49a8.49,8.49 0 0 1 8.49,-8.49a8.49,8.49 0 0 1 8.49,8.49zm-3.3993,5.4021a7.38,4.13 46.6 0 0 -2.0699,-8.1998a7.38,4.13 46.6 0 0 -8.0715,-2.5244a7.38,4.13 46.6 0 0 2.0699,8.1998a7.38,4.13 46.6 0 0 8.0715,2.5244z" fill="#110d0e"/>
  <ellipse id="svg_64" transform="rotate(46.6 46.83 43.35)" ry="4.13" rx="7.38" cy="43.35" cx="46.83" fill="#ffffff"/>
  <path id="svg_65" d="m199.42,58.18a8.48,8.48 0 0 1 -8.48,8.48a8.48,8.48 0 0 1 -8.48,-8.48a8.48,8.48 0 0 1 8.48,-8.48a8.48,8.48 0 0 1 8.48,8.48zm-2.4224,-4.1651a7.39,4.13 -34.4 0 0 -8.4309,0.7674a7.39,4.13 -34.4 0 0 -3.7643,7.5828a7.39,4.13 -34.4 0 0 8.4309,-0.7674a7.39,4.13 -34.4 0 0 3.7643,-7.5828z" fill="#050405"/>
  <path id="svg_66" d="m23.56,62.06q-0.32,2.35 2.25,4.13q0.63,0.43 0.34,0.78a0.67,0.52 36.6 0 1 -0.83,0.02l-3.89,-2.77a0.66,0.63 -55.8 0 1 -0.15,-0.87l7.02,-11.36a0.58,0.51 -59.7 0 1 0.72,-0.24l4.51,2.51a0.42,0.4 39.6 0 1 0.08,0.67c-1.09,0.87 -3.72,-2.06 -6.09,0.42a1.19,1.19 -51.9 0 0 0.22,1.83l9.82,6.27a1.14,1.14 -55.4 0 0 1.51,-0.28q0.88,-1.15 1.25,-0.64a0.93,0.61 -51 0 1 -0.09,0.89c-0.12,0.2 -5.77,10.28 -4.34,4.22a0.73,0.71 -67.6 0 0 -0.31,-0.78q-4.69,-2.99 -9.16,-5.83c-1.44,-0.92 -2.56,-1.1 -2.86,1.03z" fill="#050405"/>
  <ellipse id="svg_67" transform="rotate(-34.4 190.9 58.19)" ry="4.13" rx="7.39" cy="58.19" cx="190.89999" fill="#ffffff"/>
  <path id="svg_68" d="m116.95,53.7l1.82,0.15a0.75,0.56 87.2 0 1 0.54,0.66l12.45,114.6a0.8,0.73 74.3 0 1 -0.39,0.78l-6.84,3.36a0.36,0.34 74.9 0 1 -0.5,-0.3l-7.56,-118.7a0.51,0.44 -89.8 0 1 0.48,-0.55z" fill="#c51230"/>
  <path id="svg_69" d="m111.82,177.2c-24.75,-6.1 -44.56,-26.04 -49.96,-50.88q-1.36,-6.23 -1.36,-17.77q0,-20.9 0,-41.81a0.86,0.84 -14 0 1 0.46,-0.75q24.3,-12.36 51.29,-12.24a0.25,0.25 0 0 1 0.25,0.25l-0.19,122.82a0.4,0.39 6.9 0 1 -0.49,0.38zm-20.79,-73.69a0.34,0.34 -9.1 0 1 -0.32,-0.24l-2.5,-7.93a0.34,0.34 90 0 0 -0.64,0l-2.5,7.93a0.34,0.34 10 0 1 -0.32,0.24l-8.31,-0.08a0.34,0.34 60.4 0 0 -0.2,0.61l6.77,4.82a0.34,0.34 26.3 0 1 0.12,0.39l-2.64,7.88a0.34,0.34 82.8 0 0 0.52,0.38l6.68,-4.95a0.34,0.34 45.2 0 1 0.4,0l6.68,4.95a0.34,0.34 -81 0 0 0.52,-0.38l-2.64,-7.88a0.34,0.34 -27 0 1 0.12,-0.39l6.77,-4.82a0.34,0.34 24 0 0 -0.2,-0.61l-8.31,0.08z" fill="#c51230"/>
  <path id="svg_70" d="m125.51,54.16a0.64,0.63 7.8 0 1 0.35,0.45l21.8,101.29a0.86,0.85 61.5 0 1 -0.23,0.79l-5.27,5.28q-0.64,0.64 -0.79,-0.25q-8.93,-53.44 -18.05,-106.12c-0.32,-1.88 0.58,-2.21 2.19,-1.44z" fill="#c51230"/>
  <path id="svg_71" d="m132.16,55.47a1.44,1.41 -83.3 0 1 0.58,0.75l26.11,82.05a1.4,0.95 57.6 0 1 -0.03,0.94l-3.54,6.87q-0.26,0.5 -0.42,-0.07l-24.98,-90.52a0.56,0.44 77.8 0 1 0.33,-0.68q0.73,-0.11 1.95,0.66z" fill="#c40a28"/>
  <path id="svg_72" d="m163.18,126.25q-0.12,0.4 -0.26,0.01l-26.13,-69.16q-0.76,-2.02 1.19,-1.11c1.65,0.77 1.78,1.82 2.43,3.34q11.13,26.41 22.2,52.85c2.24,5.35 2.14,8.77 0.57,14.07z" fill="#c40a28"/>
  <path id="svg_73" d="m163.81,65.93a1.45,1.4 -75.8 0 1 0.7,1.22l0.17,33.81q0.01,1.15 -0.49,0.12l-20.36,-42.86q-0.33,-0.68 0.4,-0.48q10.28,2.96 19.58,8.19z" fill="#c51230"/>
  <path id="svg_74" d="m195.79,84.75l1.4,1.35a0.55,0.41 42.4 0 0 0.7,0.07l3.65,-4.33a0.69,0.62 29.9 0 0 -0.33,-1.02q-2.75,-1.06 -5.07,0.63a1.14,0.57 85.2 0 0 -0.32,0.79l-0.11,2.01q-2.15,-3.19 -3.19,-6.94c-0.85,-3.04 1.45,-0.26 1.68,0.04a0.75,0.67 59.6 0 0 0.77,0.25l11.3,-3.92a0.71,0.64 79.9 0 0 0.42,-0.68q-0.05,-0.9 0.41,-1.56q0.33,-0.45 0.52,0.09l5.18,14.9q0.69,1.98 -0.78,0.47q-2.69,-2.75 -5.97,-3.71a0.79,0.77 -61.5 0 0 -0.81,0.25c-1.59,1.88 -5.89,6.37 -6.21,8.67c-0.52,3.73 -3.17,-6.81 -3.24,-7.36zm12.03,-7.22l-5.49,1.7q-0.6,0.19 -0.02,0.45l6.82,3.12a0.63,0.59 -77.2 0 0 0.84,-0.56q0.11,-2.84 -1.3,-4.44a0.86,0.77 59.3 0 0 -0.85,-0.27z" fill="#0a090a"/>
  <path id="svg_75" d="m15.49,77.06q-1.11,-2.07 1.5,-1.27c0.04,0.02 7.46,1.85 2.89,2.23c-3.84,0.32 -8.78,6.59 -3.44,7.37a1.05,0.96 -61.2 0 0 0.87,-0.3c2.85,-2.87 5.26,-10.26 10.65,-6.52c3.26,2.26 2.95,6.11 0.79,8.96c-0.6,0.78 -2.11,1.52 -1.02,2.79q1.14,1.33 -0.58,1.03q-2.88,-0.51 -4.54,-1.29q-1.64,-0.77 0.14,-1.13c10.14,-2.07 5.38,-11.72 1.94,-6.74q-2.45,3.54 -3.12,4.38c-3.23,4.06 -8.64,1.27 -8.57,-3.57q0.03,-2.13 2.43,-5.11a0.78,0.74 50.8 0 0 0.06,-0.83z" fill="#0a090a"/>
  <path id="svg_76" d="m208.67,77.8q1.41,1.6 1.3,4.44a0.63,0.59 -77.2 0 1 -0.84,0.56l-6.82,-3.12q-0.58,-0.26 0.02,-0.45l5.49,-1.7a0.86,0.77 59.3 0 1 0.85,0.27z" fill="#ffffff"/>
  <path id="svg_77" d="m195.79,84.75l-0.08,-0.5l0.11,-2.01a1.14,0.57 85.2 0 1 0.32,-0.79q2.32,-1.69 5.07,-0.63a0.69,0.62 29.9 0 1 0.33,1.02l-3.65,4.33a0.55,0.41 42.4 0 1 -0.7,-0.07l-1.4,-1.35z" fill="#ffffff"/>
  <path id="svg_78" d="m91.03,103.51l8.31,-0.08a0.34,0.34 30.7 0 1 0.2,0.61l-6.77,4.82a0.34,0.34 -26.6 0 0 -0.12,0.39l2.64,7.88a0.34,0.34 -59.8 0 1 -0.52,0.38l-6.68,-4.95a0.34,0.34 44.9 0 0 -0.4,0l-6.68,4.95a0.34,0.34 73.7 0 1 -0.52,-0.38l2.64,-7.88a0.34,0.34 26.6 0 0 -0.12,-0.39l-6.77,-4.82a0.34,0.34 70.7 0 1 0.2,-0.61l8.31,0.08a0.34,0.34 8.9 0 0 0.32,-0.24l2.5,-7.93a0.34,0.34 0 0 1 0.64,0l2.5,7.93a0.34,0.34 -8.6 0 0 0.32,0.24z" fill="#ffffff"/>
  <circle id="svg_79" r="3.41" cy="112.34" cx="16.62" fill="#1a1718"/>
  <circle id="svg_80" r="3.42" cy="112.33" cx="208.31" fill="#1a1718"/>
  <path id="svg_81" d="m26.24,134.83q-0.44,-0.85 0.07,-1.44a0.35,0.34 55.5 0 1 0.59,0.12l2.65,6.95a0.55,0.48 72.1 0 1 -0.3,0.71q-0.66,0.17 -1.03,-1.04a0.74,0.7 72.1 0 0 -0.92,-0.5l-9.35,3.38q-2.24,0.8 -1.75,3.45c1.27,6.98 9.37,2.22 12.98,0.76a1.33,1.33 77.9 0 0 0.83,-1.29q-0.13,-3.17 1.95,0.5q0.47,0.82 0.6,1.75q0.19,1.32 -0.11,1.69a0.72,0.35 41.6 0 1 -0.79,-0.22c-3.82,-3.51 -11.76,6.68 -16.09,-0.42c-6.53,-10.74 4.68,-10.48 10.49,-13.73a0.51,0.48 61.6 0 0 0.18,-0.67z" fill="#110d0e"/>
  <path id="svg_82" d="m196.06,144.17l5.47,-1.02a0.35,0.35 -25.3 0 0 0.21,-0.57l-2.87,-3.41a1.07,0.91 -42.2 0 0 -1.44,0.05c-3.7,3.55 0.03,-4.25 0.23,-4.7q0.32,-0.78 0.63,0q3.15,7.82 10.2,10.14a0.45,0.45 -57.2 0 0 0.46,-0.1q2.96,-2.72 2.31,-0.56c-0.03,0.09 -3.9,11.42 -3.34,5.34a0.98,0.98 16.9 0 0 -0.52,-0.97c-4.68,-2.44 -10.32,-0.79 -14.64,1.34q-0.45,0.22 -0.33,-0.26c0.25,-1.05 3.44,-10.5 3.17,-5.75a0.44,0.39 87.1 0 0 0.46,0.47z" fill="#110d0e"/>
  <path id="svg_83" d="m37.74,173.92l5.1,-3.82a1.5,1.37 61.3 0 0 0.41,-1.69q-0.39,-0.97 -0.15,-1.48a0.44,0.36 38.6 0 1 0.67,-0.01q1.23,1.36 3.17,4.14q0.48,0.7 0.04,0.88a1.19,0.45 33.9 0 1 -0.9,-0.21q-1.52,-0.84 -3.33,0.52q-4.63,3.5 -9.02,6.73q-2.06,1.51 -1.48,-0.97l3.36,-14.39q0.26,-1.1 -0.63,-0.43l-6.48,4.9a1.86,1.73 65.8 0 0 -0.63,1.85c1.26,5.37 -4.67,-3.23 -3.55,-3.47q0.51,-0.11 1.8,0.32a1.72,1.43 32.8 0 0 1.48,-0.18l8.27,-6.27a0.96,0.8 71.3 0 0 0.32,-0.83q-0.46,-4.15 3.18,1.34a3.12,2.54 -59.7 0 1 0.35,2.25l-2.33,10.6q-0.13,0.58 0.35,0.22z" fill="#110d0e"/>
  <path id="svg_84" d="m186.47,163.05l9.34,6.71a1.33,1.31 -45.4 0 0 1.56,-0.02c4.72,-3.56 -4.94,10.7 -3.22,4.5a1,1 -64 0 0 -0.37,-1.08c-2.98,-2.17 -6.09,-4.2 -9.03,-6.44q-2.41,-1.84 -2.49,1.5a3.3,3.22 -63.5 0 0 0.65,2.02q2.57,3.41 0.37,2.16q-1.85,-1.06 -3.43,-2.68a0.75,0.75 -49.2 0 1 -0.07,-0.96l7.67,-10.6a0.65,0.52 -56.1 0 1 0.76,-0.24l4.2,2.52a0.54,0.44 36.4 0 1 0.19,0.75c-0.4,0.38 -3.7,-1.74 -6.17,0.25a1.02,1.01 -46.7 0 0 0.04,1.61z" fill="#110d0e"/>
  <path id="svg_85" d="m179.82,188.49l2.42,0.04q0.48,0.01 0.17,0.34c-0.23,0.25 -9.17,8.83 -6.07,3.44a1.04,1.03 -50.2 0 0 -0.1,-1.18l-7.19,-8.73a1.2,1.19 -34.2 0 0 -1.5,-0.28q-2.66,1.48 -0.74,-0.81c0.26,-0.3 4.88,-4.88 5.83,-4.48q0.57,0.23 -0.72,1.74a0.8,0.79 45.3 0 0 0,1.03l7.08,8.46a1.21,0.99 67 0 0 0.82,0.43z" fill="#1a1718"/>
  <path id="svg_86" d="m58.22,183.68l-7.32,9.28a1.15,1.12 -46 0 0 0,1.44c3.73,4.44 -4.49,-1.99 -5.6,-3c-1.52,-1.38 -0.1,-1.33 1.08,-0.74a1.19,1.16 32 0 0 1.45,-0.31l7.12,-8.95a0.96,0.65 -44.1 0 0 0.18,-0.88l-0.5,-0.95q-0.39,-0.75 -0.39,-0.88c-0.07,-1.28 5.58,3.65 6.13,4.1c0.95,0.8 1.53,2.45 -0.89,0.7a0.94,0.91 -52.6 0 0 -1.26,0.19z" fill="#110d0e"/>
  <path id="svg_87" d="m151.25,202.5c2.62,2.35 6.46,3.61 9.13,0.57a1.44,1.39 67.4 0 0 0.34,-0.87q0.12,-3.79 -3.83,-2.58q-1.65,0.51 -3.38,0.63q-7.43,0.5 -5.97,-5.73c1.22,-5.17 6.91,-3.25 7.98,-5.86q0.34,-0.83 0.82,-0.07c0.45,0.7 2.91,4.75 2.46,5a0.92,0.54 45.4 0 1 -0.86,-0.23q-2.49,-2.05 -5.51,-1.72c-2.35,0.25 -4.53,2.22 -2.29,4.51a1.09,1 -23.3 0 0 0.86,0.3c3.59,-0.39 8.36,-2.7 10.81,1.19c2.67,4.23 -0.67,7.88 -4.82,8.52c-1.21,0.19 -2.66,-0.52 -2.99,1.35q-0.35,1.96 -1.21,0.24l-2.35,-4.69q-1.18,-2.35 0.81,-0.56z" fill="#110d0e"/>
  <path id="svg_88" d="m73.71,202.88l6.06,-5.87a0.82,0.73 53.7 0 0 0.09,-0.96q-1.67,-2.85 0.2,-2.11q3.56,1.4 4.19,1.81q1.75,1.12 -0.94,1.28a2.76,2.54 19.7 0 0 -1.73,0.73l-9.54,9.08q-2.6,2.47 -2.54,-1.08q0.11,-7.01 0.25,-14.01c0.01,-0.62 -1.91,-3.42 -0.14,-2.68c1.19,0.5 10.22,4.25 4.51,3.79a0.56,0.55 2.5 0 0 -0.6,0.54l-0.2,9.28q-0.01,0.59 0.39,0.2z" fill="#0a090a"/>
  <path id="svg_89" d="m98.04,213.85q5.59,1.84 8.15,-3.66q0.21,-0.47 0.54,-0.23a0.74,0.62 -69.5 0 1 0.24,0.69l-0.89,5.05a0.57,0.53 8.8 0 1 -0.63,0.42l-13.46,-1.8a0.86,0.41 6.7 0 1 -0.76,-0.48q0.02,-0.47 1.82,-0.69a0.62,0.61 -88.1 0 0 0.54,-0.51q0.93,-5.16 1.36,-10.54c0.1,-1.2 0.91,-2.43 -1.01,-2.79a0.94,0.58 1.6 0 1 -0.66,-0.43c-0.46,-1.08 12.26,1.01 13.76,1.24a0.57,0.55 -83.8 0 1 0.46,0.59l-0.24,4.29a1.2,0.66 83.8 0 1 -0.36,0.87c-0.51,0.34 -0.88,-0.53 -0.94,-0.98q-0.52,-4.17 -5.91,-4.52a0.87,0.82 5.8 0 0 -0.91,0.7l-0.65,4.28a0.84,0.78 4.6 0 0 0.82,0.9q1.94,0.03 2.63,-1.56c1.8,-4.11 1.36,7.18 -0.25,6.07a1.28,0.81 -84.1 0 1 -0.41,-0.82q-0.27,-2.19 -2.47,-2.57a0.51,0.5 8.1 0 0 -0.59,0.44l-0.63,5.37a0.65,0.62 12.3 0 0 0.45,0.67zm-1.5,-4.73q0.47,-1.09 -0.17,-1.8q-0.37,-0.41 -0.49,0.17q-0.39,1.76 0,3.52q0.17,0.78 0.29,0.01l0.15,-0.95q0.12,-0.71 0.22,-0.95z" fill="#050405"/>
  <path id="svg_90" d="m127.82,213.67c3.66,-0.11 1.34,1.26 0.19,1.38c-0.48,0.06 -7.85,1.65 -6.84,0.32a1.35,0.85 5.7 0 1 0.82,-0.41c1.9,-0.26 1.08,-1.4 0.95,-2.47q-0.61,-5.41 -1.89,-10.69a0.66,0.6 -4.4 0 0 -0.61,-0.47q-0.84,-0.02 -1.5,-0.46q-0.43,-0.29 0.1,-0.45q7.96,-2.41 12.65,-1.86c4.79,0.56 3.67,5.9 0.01,7.73q-0.41,0.2 0.04,0.34c3.71,1.14 2.19,3.2 4.01,5.02q0.81,0.81 1.94,-1.58q0.24,-0.52 0.47,0c1.68,3.78 -6.66,7.03 -7.35,0.37q-0.42,-4.1 -4.09,-3.09a0.62,0.57 -12.7 0 0 -0.45,0.65l0.9,5.21a0.66,0.55 -4.6 0 0 0.65,0.46zm2.05,-13.42c-1.45,-0.33 -2.74,-0.41 -4.16,0.07a0.71,0.63 -14 0 0 -0.47,0.69l0.57,4.81a0.62,0.55 -4.1 0 0 0.63,0.48q5.89,-0.3 3.86,-5.69a0.61,0.57 -3.2 0 0 -0.43,-0.36zm3.56,2.28c-1.53,-4.82 -0.71,3.52 0.02,0.44q0.05,-0.22 -0.02,-0.44z" fill="#050405"/>
  <path id="svg_91" d="m125.71,200.32c1.42,-0.48 2.71,-0.4 4.16,-0.07a0.61,0.57 -3.2 0 1 0.43,0.36q2.03,5.39 -3.86,5.69a0.62,0.55 -4.1 0 1 -0.63,-0.48l-0.57,-4.81a0.71,0.63 -14 0 1 0.47,-0.69z" fill="#ffffff"/>
  <path id="svg_92" d="m133.45,202.97c-0.73,3.08 -1.55,-5.26 -0.02,-0.44q0.07,0.22 0.02,0.44z" fill="#333a34"/>
  <path id="svg_93" d="m96.32,210.07l-0.15,0.95q-0.12,0.77 -0.29,-0.01q-0.39,-1.76 0,-3.52q0.12,-0.58 0.49,-0.17q0.64,0.71 0.17,1.8q-0.1,0.24 -0.22,0.95z" fill="#333a34"/>
 </g>
</svg>